<?xml version="1.0" encoding="utf-8"?>
<!-- Generator: Adobe Illustrator 23.1.0, SVG Export Plug-In . SVG Version: 6.00 Build 0)  -->
<svg version="1.1" id="图层_1" xmlns="http://www.w3.org/2000/svg" xmlns:xlink="http://www.w3.org/1999/xlink" x="0px" y="0px"
	 viewBox="0 0 160 160" style="enable-background:new 0 0 160 160;" xml:space="preserve">
<style type="text/css">
	.st0{fill:#FFFFFF;}
	.st1{fill:#FFFFFF;stroke:#000000;stroke-miterlimit:10;}
</style>
<g>
	<g>
		<path class="st0" d="M3.86,67.49c-0.4,3.53-0.4,7.1-0.02,10.63l-0.13-0.87c29.44,20.09,59.03,39.96,88.78,59.6l0.16,0.18
			c14.04-9.68,29.1-17.86,44.86-24.36l0.37-0.29c0.23-3.78,0.7-7.55,1.43-11.26c-22.6-13.18-44.63-27.35-65.98-42.46
			c-8.02-5.67-15.98-11.5-24.75-15.94l0.26,0.24C32.92,49.46,17.69,57.63,3.5,67.29l-0.01,0.03c8.77,4.44,16.73,10.26,24.75,15.94
			c21.36,15.11,43.38,29.28,65.98,42.46l-1.43,10.95c0.23-3.68,0.7-7.34,1.43-10.95c14.19-9.67,29.42-17.84,45.35-24.33"/>
		<g>
			<path d="M3.36,67.49c-0.39,3.54-0.4,7.1-0.02,10.63c0.33-0.04,0.65-0.09,0.98-0.13c-0.04-0.29-0.09-0.58-0.13-0.87
				c-0.24,0.19-0.49,0.38-0.73,0.56c11.56,7.89,23.14,15.75,34.75,23.57c11.57,7.79,23.16,15.55,34.78,23.28
				c3.26,2.17,6.52,4.33,9.79,6.5c1.65,1.09,3.3,2.19,4.95,3.28c0.83,0.55,1.65,1.09,2.48,1.64c0.67,0.44,1.54,0.85,2.09,1.44
				c0.14,0.15,0.43,0.2,0.61,0.08c13.8-9.5,28.58-17.58,44.05-24.02c0.54-0.23,1.27-0.43,1.44-1.06c0.15-0.56,0.08-1.26,0.13-1.85
				c0.05-0.61,0.11-1.23,0.17-1.84c0.26-2.5,0.63-4.98,1.11-7.44c0.04-0.22-0.03-0.45-0.23-0.56
				c-12.28-7.16-24.39-14.62-36.32-22.35c-11.82-7.67-23.39-15.7-34.91-23.82c-6.27-4.42-12.65-8.74-19.51-12.22
				c-0.48-0.25-1.04,0.38-0.61,0.79c0.09,0.08,0.17,0.16,0.26,0.24c0.07-0.28,0.15-0.56,0.22-0.84
				C36.04,47.65,23.8,53.86,12.16,61.07c-1.63,1.01-3.25,2.04-4.86,3.09c-0.8,0.52-1.6,1.05-2.4,1.59
				c-0.42,0.28-0.83,0.56-1.24,0.84c-0.25,0.17-0.56,0.3-0.65,0.61c-0.06,0.2,0.04,0.47,0.23,0.56c6.14,3.12,11.9,6.91,17.54,10.85
				c5.7,3.98,11.35,8.04,17.07,11.97c11.68,8.03,23.55,15.78,35.59,23.24c6.78,4.2,13.62,8.31,20.52,12.34
				c-0.08-0.14-0.17-0.29-0.25-0.43c-0.48,3.65-0.95,7.3-1.43,10.95c0.33,0,0.67,0,1,0c0.23-3.64,0.7-7.25,1.41-10.82
				c-0.08,0.1-0.15,0.2-0.23,0.3c11.04-7.51,22.68-14.12,34.79-19.73c3.45-1.6,6.93-3.11,10.44-4.55c0.59-0.24,0.33-1.21-0.27-0.96
				c-15.18,6.2-29.75,13.89-43.4,22.98c-0.49,0.32-0.97,0.65-1.45,0.98c-0.46,0.31-0.77,0.44-0.9,0.98
				c-0.28,1.19-0.45,2.42-0.63,3.63c-0.36,2.39-0.61,4.79-0.77,7.2c-0.04,0.66,0.92,0.62,1,0c0.48-3.65,0.95-7.3,1.43-10.95
				c0.02-0.17-0.11-0.35-0.25-0.43c-12.28-7.16-24.39-14.62-36.32-22.35c-11.82-7.67-23.39-15.7-34.91-23.82
				c-6.27-4.42-12.65-8.74-19.51-12.22c0.08,0.19,0.15,0.38,0.23,0.56c0-0.01,0.01-0.02,0.01-0.03c-0.08,0.1-0.15,0.2-0.23,0.3
				c11.04-7.51,22.68-14.12,34.79-19.73c3.45-1.6,6.93-3.11,10.44-4.55c0.32-0.13,0.53-0.56,0.22-0.84
				c-0.09-0.08-0.17-0.16-0.26-0.24c-0.2,0.26-0.4,0.52-0.61,0.79c6.14,3.12,11.9,6.91,17.54,10.85c5.7,3.98,11.35,8.04,17.07,11.97
				c11.68,8.03,23.55,15.78,35.59,23.24c6.78,4.2,13.62,8.31,20.52,12.34c-0.08-0.19-0.15-0.38-0.23-0.56
				c-0.73,3.76-1.21,7.57-1.45,11.39c0.08-0.14,0.17-0.29,0.25-0.43c-0.43,0.33-0.91,0.51-1.41,0.72c-0.81,0.34-1.62,0.68-2.43,1.03
				c-1.53,0.66-3.06,1.34-4.58,2.03c-3.12,1.42-6.21,2.91-9.26,4.46c-6.11,3.11-12.09,6.47-17.91,10.09
				c-3.27,2.03-6.48,4.14-9.65,6.32c0.2,0.03,0.4,0.05,0.61,0.08c-0.45-0.47-1.08-0.79-1.62-1.15c-0.75-0.5-1.5-0.99-2.25-1.49
				c-1.43-0.94-2.85-1.89-4.28-2.83c-2.93-1.94-5.85-3.88-8.78-5.82c-5.85-3.88-11.69-7.78-17.53-11.68
				c-11.67-7.8-23.32-15.65-34.95-23.52c-6.56-4.44-13.11-8.9-19.65-13.36c-0.4-0.27-0.79,0.18-0.73,0.56
				c0.04,0.29,0.09,0.58,0.13,0.87c0.08,0.55,1.04,0.43,0.98-0.13c-0.38-3.54-0.37-7.1,0.02-10.63C4.44,66.86,3.43,66.86,3.36,67.49
				L3.36,67.49z"/>
		</g>
	</g>
</g>
<g>
	<g>
		<path class="st0" d="M21.29,60.32c-0.4,3.53-0.4,7.1-0.02,10.63l-0.13-0.87c29.44,20.09,59.03,39.96,88.78,59.6l0.16,0.18
			c14.04-9.68,29.1-17.86,44.86-24.36l0.37-0.29c0.23-3.78,0.7-7.55,1.43-11.26c-22.6-13.18-44.63-27.35-65.98-42.46
			c-8.02-5.67-15.98-11.5-24.75-15.94l0.26,0.24c-15.93,6.49-31.16,14.67-45.35,24.33l-0.01,0.03c8.77,4.44,16.73,10.26,24.75,15.94
			c21.36,15.11,43.38,29.28,65.98,42.46l-1.43,10.95c0.23-3.68,0.7-7.34,1.43-10.95c14.19-9.67,29.42-17.84,45.35-24.33"/>
		<g>
			<path d="M20.79,60.32c-0.39,3.54-0.4,7.1-0.02,10.63c0.33-0.04,0.65-0.09,0.98-0.13c-0.04-0.29-0.09-0.58-0.13-0.87
				c-0.24,0.19-0.49,0.38-0.73,0.56c11.56,7.89,23.14,15.75,34.75,23.57c11.57,7.79,23.16,15.55,34.78,23.28
				c3.26,2.17,6.52,4.33,9.79,6.5c1.65,1.09,3.3,2.19,4.95,3.28c0.83,0.55,1.65,1.09,2.48,1.64c0.67,0.44,1.54,0.85,2.09,1.44
				c0.14,0.15,0.43,0.2,0.61,0.08c13.8-9.5,28.58-17.58,44.05-24.02c0.54-0.23,1.27-0.43,1.44-1.06c0.15-0.56,0.08-1.26,0.13-1.85
				c0.05-0.61,0.11-1.23,0.17-1.84c0.26-2.5,0.63-4.98,1.11-7.44c0.04-0.22-0.03-0.45-0.23-0.56
				c-12.28-7.16-24.39-14.62-36.32-22.35c-11.82-7.67-23.39-15.7-34.91-23.82c-6.27-4.42-12.65-8.74-19.51-12.22
				c-0.48-0.25-1.04,0.38-0.61,0.79c0.09,0.08,0.17,0.16,0.26,0.24c0.07-0.28,0.15-0.56,0.22-0.84
				C53.47,40.48,41.23,46.69,29.59,53.9c-1.63,1.01-3.25,2.04-4.86,3.09c-0.8,0.52-1.6,1.05-2.4,1.59
				c-0.42,0.28-0.83,0.56-1.24,0.84c-0.25,0.17-0.56,0.3-0.65,0.61c-0.06,0.2,0.04,0.47,0.23,0.56c6.14,3.12,11.9,6.91,17.54,10.85
				c5.7,3.98,11.35,8.04,17.07,11.97c11.68,8.03,23.55,15.78,35.59,23.24c6.78,4.2,13.62,8.31,20.52,12.34
				c-0.08-0.14-0.17-0.29-0.25-0.43c-0.48,3.65-0.95,7.3-1.43,10.95c0.33,0,0.67,0,1,0c0.23-3.64,0.7-7.25,1.41-10.82
				c-0.08,0.1-0.15,0.2-0.23,0.3c11.04-7.51,22.68-14.12,34.79-19.73c3.45-1.6,6.93-3.11,10.44-4.55c0.59-0.24,0.33-1.21-0.27-0.96
				c-15.18,6.2-29.75,13.89-43.4,22.98c-0.49,0.32-0.97,0.65-1.45,0.98c-0.46,0.31-0.77,0.44-0.9,0.98
				c-0.28,1.19-0.45,2.42-0.63,3.63c-0.36,2.39-0.61,4.79-0.77,7.2c-0.04,0.66,0.92,0.62,1,0c0.48-3.65,0.95-7.3,1.43-10.95
				c0.02-0.17-0.11-0.35-0.25-0.43c-12.28-7.16-24.39-14.62-36.32-22.35c-11.82-7.67-23.39-15.7-34.91-23.82
				c-6.27-4.42-12.65-8.74-19.51-12.22c0.08,0.19,0.15,0.38,0.23,0.56c0-0.01,0.01-0.02,0.01-0.03c-0.08,0.1-0.15,0.2-0.23,0.3
				c11.04-7.51,22.68-14.12,34.79-19.73c3.45-1.6,6.93-3.11,10.44-4.55c0.32-0.13,0.53-0.56,0.22-0.84
				c-0.09-0.08-0.17-0.16-0.26-0.24c-0.2,0.26-0.4,0.52-0.61,0.79c6.14,3.12,11.9,6.91,17.54,10.85c5.7,3.98,11.35,8.04,17.07,11.97
				c11.68,8.03,23.55,15.78,35.59,23.24c6.78,4.2,13.62,8.31,20.52,12.34c-0.08-0.19-0.15-0.38-0.23-0.56
				c-0.73,3.76-1.21,7.57-1.45,11.39c0.08-0.14,0.17-0.29,0.25-0.43c-0.43,0.33-0.91,0.51-1.41,0.72c-0.81,0.34-1.62,0.68-2.43,1.03
				c-1.53,0.66-3.06,1.34-4.58,2.03c-3.12,1.42-6.21,2.91-9.26,4.46c-6.11,3.11-12.09,6.47-17.91,10.09
				c-3.27,2.03-6.48,4.14-9.65,6.32c0.2,0.03,0.4,0.05,0.61,0.08c-0.45-0.47-1.08-0.79-1.62-1.15c-0.75-0.5-1.5-0.99-2.25-1.49
				c-1.43-0.94-2.85-1.89-4.28-2.83c-2.93-1.94-5.85-3.88-8.78-5.82c-5.85-3.88-11.69-7.78-17.53-11.68
				c-11.67-7.8-23.32-15.65-34.95-23.52c-6.56-4.44-13.11-8.9-19.65-13.36c-0.4-0.27-0.79,0.18-0.73,0.56
				c0.04,0.29,0.09,0.58,0.13,0.87c0.08,0.55,1.04,0.43,0.98-0.13c-0.38-3.54-0.37-7.1,0.02-10.63
				C21.86,59.68,20.86,59.68,20.79,60.32L20.79,60.32z"/>
		</g>
	</g>
</g>
<polygon class="st1" points="110.86,124.17 59.37,121.34 66.3,30.91 117.8,33.74 "/>
</svg>
