<?xml version="1.0" encoding="utf-8"?>
<!-- Generator: Adobe Illustrator 23.1.0, SVG Export Plug-In . SVG Version: 6.00 Build 0)  -->
<svg version="1.1" id="图层_1" xmlns="http://www.w3.org/2000/svg" xmlns:xlink="http://www.w3.org/1999/xlink" x="0px" y="0px"
	 viewBox="0 0 160 160" style="enable-background:new 0 0 160 160;" xml:space="preserve">
<style type="text/css">
	.st0{fill:#FFFFFF;}
</style>
<g>
	<path class="st0" d="M46.01,21.89c-4.3,3.56-8.1,7.72-11.25,12.33c-1.68,2.46-3.19,5.07-4.11,7.91c-1.04,3.21-1.29,6.62-1.25,9.99
		c0.2,17.3,8.35,34.34,21.68,45.37c5.67,4.69,12.15,8.29,18.25,12.41c9.12,6.17,17.42,13.55,24.61,21.88l-0.3,1.29
		c10.86-3.26,21.33-7.82,31.12-13.54l-0.12,1.98c-3.77-8.18-4.2-17.53-3.42-26.51s2.69-17.83,3.35-26.82
		c0.91-12.32-0.64-25.08-6.43-35.99c-5.79-10.91-16.22-19.72-28.42-21.69c-3.75-0.6-7.57-0.57-11.35-0.22
		c-12.33,1.13-24.38,5.66-34.21,13.18"/>
	<g>
		<path d="M45.3,21.18c-3.74,3.12-7.09,6.65-10,10.56c-2.91,3.91-5.44,8.16-6.34,13.01c-1.62,8.67-0.05,18.25,2.84,26.5
			c2.86,8.14,7.37,15.68,13.28,21.97c6.73,7.17,15.29,11.86,23.37,17.28c9.21,6.18,17.54,13.6,24.79,21.98
			c-0.09-0.32-0.17-0.65-0.26-0.97c-0.1,0.43-0.2,0.86-0.3,1.29c-0.16,0.72,0.47,1.46,1.23,1.23c10.95-3.31,21.48-7.89,31.36-13.64
			c-0.5-0.29-1-0.58-1.5-0.86c-0.04,0.66-0.08,1.32-0.12,1.98c0.62-0.17,1.24-0.34,1.86-0.5c-5.3-11.7-3.69-24.94-1.88-37.24
			c0.92-6.26,1.9-12.53,2.13-18.86c0.22-5.84-0.15-11.71-1.27-17.45c-2.09-10.76-7.07-20.98-15.3-28.37
			c-3.69-3.32-7.93-6-12.57-7.77C91.26,9.27,85.52,8.76,79.8,9.16c-13.01,0.91-25.74,5.54-36.14,13.44
			c-1.01,0.77-0.02,2.51,1.01,1.73c9.12-6.92,20.02-11.34,31.37-12.79c5.8-0.74,11.76-0.82,17.42,0.83
			c4.78,1.39,9.22,3.86,13.05,7.03c8.38,6.94,13.52,16.77,15.8,27.31c2.59,12.01,1.24,24.03-0.53,36.05
			c-1.92,13.05-3.61,26.84,2.02,39.25c0.44,0.97,1.81,0.39,1.86-0.5c0.04-0.66,0.08-1.32,0.12-1.98c0.05-0.77-0.88-1.23-1.5-0.86
			c-9.74,5.67-20.09,10.18-30.88,13.44c0.41,0.41,0.82,0.82,1.23,1.23c0.1-0.42,0.25-0.86,0.3-1.29c0.11-1.05-1.07-1.91-1.71-2.63
			c-1.61-1.81-3.28-3.56-5-5.27c-3.43-3.42-7.07-6.64-10.87-9.63c-3.88-3.06-7.95-5.84-12.12-8.5c-4.32-2.75-8.71-5.44-12.71-8.65
			C38.73,86.3,30.29,68.89,30.4,51.19c0.02-2.9,0.28-5.81,1.15-8.59c0.84-2.7,2.25-5.18,3.82-7.52c3.15-4.69,7-8.88,11.34-12.49
			C47.71,21.77,46.29,20.36,45.3,21.18L45.3,21.18z"/>
	</g>
</g>
<g>
	<path class="st0" d="M123.95,121.34c0.69,0.2,1.37,0.4,2.06,0.6c0.25,1.28,0.04,2.65-0.59,3.79c1.17-0.6,2.77-0.19,3.51,0.91
		s0.5,2.73-0.51,3.58c1.54-0.12,3.25,0.47,3.96,1.84c0.72,1.37-0.11,3.43-1.65,3.54c0.96,0.74,2.04,1.86,1.59,2.99
		c-0.16,0.4-0.49,0.7-0.81,0.98c-3.7,3.32-7.4,6.65-11.1,9.97c-2.06,1.85-4.16,3.73-6.64,4.98c-3.78,1.9-8.13,2.18-12.36,2.42
		c-1.11,0.06-2.25,0.13-3.32-0.19c-1.07-0.32-2.07-1.09-2.34-2.18s0.46-2.4,1.57-2.48c-0.94,1-2.79,0.27-3.32-1
		c-0.53-1.26-0.14-2.71,0.34-4c-1.5-0.34-3.02-1.23-3.46-2.7c-0.44-1.47,0.88-3.35,2.37-2.95c-0.83,0.89-2.49,0.29-2.95-0.84
		s-0.02-2.43,0.62-3.46c1.05-1.68,2.63-2.96,4.22-4.16L123.95,121.34z"/>
	<g>
		<path d="M123.69,122.3c0.69,0.2,1.37,0.4,2.06,0.6c-0.23-0.23-0.47-0.47-0.7-0.7c0.17,1.06-0.01,2.07-0.49,3.02
			c-0.47,0.95,0.46,1.76,1.37,1.37c1.9-0.82,3.17,1.58,1.79,2.92c-0.6,0.59-0.17,1.75,0.71,1.71c1.07-0.05,2.44,0.17,3.01,1.21
			c0.5,0.89,0.06,2.06-0.97,2.22c-0.71,0.11-1,1.22-0.44,1.67c0.69,0.56,1.71,1.28,1.13,2.22c-0.45,0.73-1.56,1.42-2.2,2
			c-1.48,1.33-2.96,2.66-4.44,3.99c-2.98,2.67-5.86,5.66-9.19,7.91c-3.18,2.16-6.85,2.95-10.63,3.28c-1.75,0.15-3.62,0.41-5.38,0.25
			c-0.8-0.07-1.69-0.32-2.23-0.96c-0.57-0.69-0.51-1.77,0.5-1.95c-0.32-0.56-0.65-1.11-0.97-1.67c-0.68,0.59-1.59-0.32-1.78-0.94
			c-0.3-1.01,0.13-2.14,0.47-3.08c0.18-0.5-0.21-1.1-0.7-1.23c-0.96-0.24-2.09-0.67-2.59-1.6c-0.37-0.68-0.15-2.31,0.96-2.12
			c-0.15-0.56-0.29-1.11-0.44-1.67c-0.39,0.34-1.01-0.03-1.25-0.39c-0.45-0.68-0.05-1.71,0.29-2.35c0.75-1.42,2.02-2.54,3.26-3.52
			c0.55-0.44,0.77-0.61,1.4-0.86c2.05-0.83,4.11-1.66,6.16-2.5c5.81-2.35,11.62-4.71,17.44-7.06c1.46-0.59,2.91-1.18,4.37-1.77
			c1.18-0.48,0.66-2.41-0.53-1.93c-4.76,1.93-9.52,3.86-14.28,5.79c-3.27,1.32-6.53,2.65-9.8,3.97c-1.55,0.63-3.2,1.16-4.71,1.91
			c-1.24,0.61-2.42,1.76-3.37,2.75c-1.11,1.18-2.16,2.62-2.36,4.26c-0.32,2.6,2.49,5.13,4.8,3.12c0.54-0.47,0.29-1.55-0.44-1.67
			c-2.01-0.34-3.72,1.29-3.72,3.31c0,2.33,2.28,3.75,4.28,4.26c-0.23-0.41-0.47-0.82-0.7-1.23c-0.65,1.82-1.12,4.17,0.42,5.7
			c1.17,1.17,2.97,1.37,4.23,0.27c0.82-0.72-0.08-1.83-0.97-1.67c-1.34,0.24-2.31,1.49-2.36,2.84c-0.05,1.42,0.9,2.66,2.1,3.32
			c1.55,0.84,3.34,0.73,5.04,0.63c1.99-0.12,3.98-0.26,5.96-0.57c3.96-0.62,7.37-2.14,10.49-4.65c3.42-2.75,6.59-5.83,9.85-8.76
			c0.93-0.83,1.85-1.66,2.78-2.49c0.71-0.64,1.6-1.24,2.11-2.07c1.06-1.71-0.27-3.42-1.59-4.48c-0.15,0.56-0.29,1.11-0.44,1.67
			c1.98-0.31,3.02-2.55,2.51-4.37c-0.61-2.16-3.04-3.07-5.08-2.98c0.24,0.57,0.47,1.14,0.71,1.71c1.32-1.28,1.65-3.39,0.56-4.93
			c-1.1-1.56-3.1-1.86-4.77-1.14c0.46,0.46,0.91,0.91,1.37,1.37c0.74-1.47,0.94-2.94,0.69-4.56c-0.05-0.34-0.39-0.61-0.7-0.7
			c-0.69-0.2-1.37-0.4-2.06-0.6C122.98,120.01,122.45,121.94,123.69,122.3z"/>
	</g>
</g>
<g>
	<g>
		<path d="M62.5,63.99c1.26,1.15,2.95,1.64,4.61,1.12c1.78-0.56,3.27-2.06,4.71-3.17c0.95-0.73,2.25-2.25,3.52-2.18
			c0.75,0.04,1.36,0.28,2.13,0.1c1.36-0.32,2.36-1.34,3.43-2.16c0.51-0.39,1.12-0.89,1.8-0.91c0.83-0.03,1.53,0.54,2.4,0.45
			c1.72-0.18,2.39-1.97,3.59-2.94c1.65-1.32,3.8-0.97,5.67-1.74c1.74-0.71,3.32-2.11,5.29-2.09c1.29,0.02,1.29-1.98,0-2
			c-1.75-0.02-3.19,0.77-4.68,1.58c-0.85,0.46-1.68,0.87-2.64,1.04c-0.98,0.18-1.95,0.19-2.9,0.54c-1.68,0.61-2.56,1.77-3.73,3.02
			c-0.81,0.87-1.34,0.4-2.34,0.21c-0.62-0.11-1.22-0.05-1.81,0.15c-1.22,0.42-2.13,1.39-3.15,2.14c-0.51,0.38-1.08,0.78-1.73,0.81
			c-0.9,0.05-1.6-0.4-2.52-0.1c-0.84,0.27-1.54,0.96-2.22,1.48c-0.89,0.69-1.79,1.39-2.68,2.08c-1.56,1.21-3.48,2.85-5.34,1.16
			C62.96,61.72,61.54,63.13,62.5,63.99L62.5,63.99z"/>
	</g>
</g>
<g>
	<g>
		<path d="M134.41,44.47c0.21-1.03,1.14-1.64,1.95-2.2c1.12-0.78,2.27-1.54,3.43-2.26c2.3-1.43,4.67-2.73,7.1-3.91
			c1.16-0.56,0.14-2.29-1.01-1.73c-2.65,1.29-5.22,2.72-7.71,4.29c-1.19,0.75-2.38,1.52-3.51,2.37c-0.99,0.75-1.93,1.64-2.18,2.9
			C132.23,45.2,134.16,45.74,134.41,44.47L134.41,44.47z"/>
	</g>
</g>
<g>
	<g>
		<path d="M127.8,32.32c2.16-5.23,5.76-9.89,10.28-13.31c0.43-0.33,0.65-0.86,0.36-1.37c-0.24-0.43-0.94-0.68-1.37-0.36
			c-4.97,3.76-8.82,8.74-11.2,14.5c-0.21,0.5,0.23,1.09,0.7,1.23C127.15,33.19,127.6,32.82,127.8,32.32L127.8,32.32z"/>
	</g>
</g>
<g>
	<g>
		<path d="M117.14,14.1c2.17-4,5.19-7.53,8.86-10.24c0.43-0.32,0.65-0.87,0.36-1.37c-0.25-0.43-0.93-0.68-1.37-0.36
			c-3.95,2.92-7.23,6.64-9.57,10.96C114.8,14.22,116.52,15.24,117.14,14.1L117.14,14.1z"/>
	</g>
</g>
<g>
	<g>
		<path d="M14.84,71.18c-0.01-0.01-0.08-0.11-0.08-0.11c0.03-0.02,0.06,0.32,0.06,0.34c-0.02,0.08-0.02,0.09,0,0.04
			c0.01-0.05,0.01-0.04-0.02,0.03c-0.03,0.07-0.04,0.08-0.01,0.03c0.01-0.02,0.02-0.04,0.03-0.06c0.04-0.06,0.14-0.15-0.01-0.01
			c0.04-0.04,0.07-0.08,0.11-0.11c0.04-0.04,0.08-0.07,0.12-0.11c0.08-0.08,0.05-0.03-0.02,0.01c0.48-0.27,0.97-0.52,1.47-0.74
			c0.06-0.03,0.12-0.05,0.18-0.08c0.02-0.01,0.19-0.08,0.11-0.05c-0.08,0.03,0.1-0.04,0.11-0.05c0.08-0.03,0.15-0.06,0.23-0.09
			c0.26-0.1,0.53-0.2,0.8-0.3c0.55-0.2,1.11-0.37,1.67-0.52c0.5-0.14,0.86-0.72,0.7-1.23c-0.17-0.52-0.69-0.85-1.23-0.7
			c-1.38,0.38-2.73,0.89-4.03,1.5c-0.59,0.28-1.19,0.56-1.63,1.05c-0.51,0.58-0.82,1.49-0.29,2.17c0.17,0.22,0.32,0.38,0.6,0.46
			c0.24,0.07,0.56,0.04,0.77-0.1C14.89,72.29,15.19,71.63,14.84,71.18L14.84,71.18z"/>
	</g>
</g>
<g>
	<g>
		<path d="M24.26,95.99c-0.32,0.61-0.33,1.32,0.03,1.92c0.33,0.55,1.11,0.67,1.57,0.2c1.13-1.14,2.27-2.28,3.4-3.42
			c0.37-0.37,0.4-1.05,0-1.41c-0.4-0.37-1.02-0.4-1.41,0c-1.13,1.14-2.27,2.28-3.4,3.42c0.52,0.07,1.05,0.13,1.57,0.2
			c-0.01-0.02-0.03-0.04-0.04-0.07c-0.04-0.07-0.02-0.03,0.05,0.12c0-0.04-0.03-0.11-0.04-0.15c0.01,0.09,0.02,0.18,0.04,0.27
			c-0.01-0.09-0.01-0.17,0-0.26c-0.01,0.09-0.02,0.18-0.04,0.27c0.01-0.04,0.02-0.09,0.03-0.13c0.01-0.1-0.11,0.23-0.03,0.07
			c0.24-0.46,0.13-1.11-0.36-1.37C25.17,95.39,24.52,95.49,24.26,95.99L24.26,95.99z"/>
	</g>
</g>
<g>
	<g>
		<path d="M40.78,128.68c1.36-4.35,3.43-8.43,6.09-12.12c0.32-0.44,0.08-1.11-0.36-1.37c-0.5-0.3-1.05-0.08-1.37,0.36
			c-2.77,3.83-4.88,8.09-6.3,12.6C38.46,129.37,40.39,129.9,40.78,128.68L40.78,128.68z"/>
	</g>
</g>
</svg>
