<?xml version="1.0" encoding="utf-8"?>
<!-- Generator: Adobe Illustrator 23.1.0, SVG Export Plug-In . SVG Version: 6.00 Build 0)  -->
<svg version="1.1" id="图层_1" xmlns="http://www.w3.org/2000/svg" xmlns:xlink="http://www.w3.org/1999/xlink" x="0px" y="0px"
	 viewBox="0 0 160 160" style="enable-background:new 0 0 160 160;" xml:space="preserve">
<style type="text/css">
	.st0{fill:#FFFFFF;}
	.st1{fill:none;stroke:#000000;stroke-miterlimit:10;}
</style>
<g>
	<g>
		<path class="st0" d="M31.27,53.31c23.54,34.19,47.15,68.48,66.64,105.13l0.58-1.57c8.23-2.94,16.47-5.89,24.7-8.83l-0.08-0.6
			c-11.71-37.82-24.62-75.27-38.7-112.27l1.88,1.11C72.22,23.62,57.21,11.98,41.45,1.48l3.4,1.48
			c-7.59,17.43-8.65,37.08-15.59,54.77"/>
		<g>
			<path d="M30.84,53.57c9.21,13.37,18.41,26.74,27.39,40.28c8.94,13.48,17.65,27.12,25.87,41.05c4.63,7.84,9.1,15.77,13.38,23.81
				c0.22,0.41,0.77,0.26,0.91-0.12c0.19-0.52,0.39-1.05,0.58-1.57c-0.12,0.12-0.23,0.23-0.35,0.35c8.23-2.94,16.47-5.89,24.7-8.83
				c0.19-0.07,0.4-0.26,0.37-0.48c-0.19-1.51-0.79-2.96-1.24-4.41c-0.58-1.86-1.16-3.72-1.75-5.58c-1.19-3.77-2.39-7.53-3.6-11.29
				c-2.41-7.47-4.86-14.92-7.36-22.36c-5.02-14.92-10.22-29.78-15.62-44.58c-3.02-8.29-6.1-16.55-9.24-24.8
				c-0.24,0.19-0.49,0.38-0.73,0.56c0.63,0.37,1.26,0.74,1.88,1.11c0.48,0.28,1.04-0.4,0.61-0.79c-11-9.88-22.55-19.14-34.58-27.72
				c-3.42-2.44-6.87-4.82-10.37-7.15c-0.17,0.29-0.34,0.58-0.5,0.86c1.13,0.49,2.27,0.99,3.4,1.48c-0.06-0.23-0.12-0.46-0.18-0.68
				c-5.93,13.67-7.9,28.53-11.74,42.82c-1.1,4.09-2.36,8.13-3.9,12.07c-0.23,0.6,0.73,0.86,0.96,0.27
				c5.4-13.82,7.22-28.65,11.35-42.84c1.17-4.01,2.52-7.97,4.19-11.81c0.1-0.22,0.09-0.57-0.18-0.68c-1.13-0.49-2.27-0.99-3.4-1.48
				c-0.58-0.25-1.05,0.5-0.5,0.86c12.27,8.18,24.08,17.04,35.36,26.54c3.17,2.67,6.3,5.4,9.39,8.17c0.2-0.26,0.4-0.52,0.61-0.79
				c-0.63-0.37-1.26-0.74-1.88-1.11c-0.35-0.21-0.89,0.14-0.73,0.56c5.58,14.67,10.98,29.4,16.2,44.21
				c5.18,14.71,10.17,29.48,14.98,44.31c1.36,4.2,2.71,8.4,4.04,12.6c0.65,2.05,1.3,4.11,1.94,6.16c0.34,1.08,0.67,2.15,1.01,3.23
				c0.23,0.74,0.51,1.47,0.61,2.24c0.12-0.16,0.24-0.32,0.37-0.48c-5.1,1.82-10.2,3.65-15.29,5.47c-2.55,0.91-5.1,1.82-7.65,2.73
				c-0.71,0.25-1.86,0.37-2.17,1.13c-0.19,0.47-0.35,0.95-0.53,1.42c0.3-0.04,0.61-0.08,0.91-0.12
				c-7.62-14.32-15.87-28.3-24.5-42.03c-8.61-13.71-17.58-27.18-26.68-40.55c-5.13-7.53-10.29-15.04-15.46-22.55
				C31.34,52.53,30.47,53.03,30.84,53.57L30.84,53.57z"/>
		</g>
	</g>
	<line class="st1" x1="45.21" y1="2.98" x2="110.21" y2="152.98"/>
</g>
<g>
	<g>
		<path class="st0" d="M9.32,105.79c19.3,17.35,38.6,34.69,57.9,52.04l-0.34,0.71c10.02-4.06,19.81-8.66,29.33-13.79l-1.11-1.59
			c0.21,0.71,0.41,1.41,0.62,2.12c-10.57-30.06-23.03-59.46-37.3-87.96l-0.52-0.6c-18.45-2.6-35.57-11.98-54.15-13.39l-1.1,1.87
			c1.78,21.68,3.82,43.34,6.1,64.97"/>
		<g>
			<path d="M8.97,106.15c7.55,6.78,15.09,13.57,22.64,20.35c7.52,6.75,15.03,13.51,22.55,20.26c4.24,3.81,8.47,7.62,12.71,11.42
				c-0.03-0.2-0.05-0.4-0.08-0.61c-0.11,0.24-0.22,0.47-0.34,0.71c-0.16,0.34,0.12,0.91,0.56,0.73c7.81-3.17,15.49-6.65,23.01-10.47
				c2.16-1.1,4.31-2.22,6.44-3.37c0.22-0.12,0.33-0.47,0.18-0.68c-0.37-0.53-0.74-1.06-1.11-1.59c-0.31-0.44-1.08-0.19-0.91,0.39
				c0.21,0.71,0.41,1.41,0.62,2.12c0.32-0.09,0.64-0.18,0.96-0.27c-3.44-9.77-7.07-19.47-10.9-29.09
				c-3.8-9.55-7.8-19.02-11.99-28.41c-4.22-9.46-8.63-18.83-13.23-28.11c-0.44-0.89-0.8-1.98-1.45-2.73
				c-0.16-0.18-0.32-0.43-0.54-0.53c-0.2-0.09-0.5-0.09-0.72-0.12c-0.37-0.06-0.74-0.11-1.1-0.17c-2.35-0.39-4.68-0.88-7-1.44
				c-4.72-1.14-9.36-2.58-13.98-4.06C26.1,47.54,16.9,44.44,7.3,43.2c-1.18-0.15-2.36-0.27-3.55-0.37c-0.17-0.01-0.35,0.1-0.43,0.25
				c-0.19,0.33-0.39,0.66-0.58,0.99c-0.19,0.32-0.51,0.7-0.58,1.07c-0.09,0.47,0.07,1.08,0.11,1.56c0.05,0.62,0.1,1.24,0.15,1.86
				c0.1,1.2,0.2,2.4,0.3,3.6c0.4,4.67,0.8,9.35,1.22,14.02c0.84,9.39,1.73,18.77,2.67,28.14c0.53,5.29,1.07,10.57,1.63,15.86
				c0.07,0.63,1.07,0.64,1,0c-0.98-9.29-1.92-18.58-2.8-27.88c-0.88-9.26-1.72-18.52-2.52-27.78c-0.22-2.61-0.44-5.21-0.66-7.82
				c-0.03-0.33-0.03-0.67-0.08-0.99c-0.03-0.16-0.08-0.24-0.07-0.31c0.03-0.19,0.27-0.45,0.36-0.61c0.23-0.4,0.47-0.8,0.7-1.19
				c-0.14,0.08-0.29,0.17-0.43,0.25c9.56,0.74,18.76,3.6,27.84,6.51c4.56,1.46,9.11,2.94,13.73,4.21c2.3,0.63,4.61,1.2,6.95,1.69
				c1.17,0.24,2.34,0.47,3.51,0.66c0.57,0.09,1.22,0.11,1.77,0.27c0.06,0.02-0.09-0.11,0.06-0.03c0.04,0.02,0.06,0.08,0.09,0.11
				c0.11,0.09,0.24,0.25,0.32,0.37c0.3,0.42,0.49,0.99,0.72,1.46c0.28,0.57,0.57,1.14,0.85,1.71c0.57,1.14,1.13,2.29,1.69,3.43
				c1.12,2.29,2.23,4.59,3.32,6.89c2.19,4.6,4.34,9.23,6.43,13.88c4.21,9.33,8.23,18.74,12.06,28.23
				c3.81,9.46,7.44,18.99,10.87,28.59c0.43,1.2,0.85,2.4,1.28,3.6c0.21,0.6,1.15,0.36,0.96-0.27c-0.21-0.71-0.41-1.41-0.62-2.12
				c-0.3,0.13-0.61,0.26-0.91,0.39c0.37,0.53,0.74,1.06,1.11,1.59c0.06-0.23,0.12-0.46,0.18-0.68c-7.35,3.96-14.86,7.61-22.51,10.93
				c-2.22,0.96-4.45,1.9-6.7,2.81c0.19,0.24,0.38,0.49,0.56,0.73c0.11-0.24,0.22-0.47,0.34-0.71c0.09-0.19,0.09-0.45-0.08-0.61
				c-7.55-6.78-15.09-13.57-22.64-20.35c-7.52-6.75-15.03-13.51-22.55-20.26c-4.24-3.81-8.47-7.62-12.71-11.42
				C9.2,105.01,8.49,105.72,8.97,106.15L8.97,106.15z"/>
		</g>
	</g>
	<line class="st1" x1="3.21" y1="44.98" x2="81.21" y2="151.98"/>
</g>
<g>
	<g>
		<g>
			<path d="M107.01,53.84c3.15,3.7,7.25,6.49,11.82,8.12c1.21,0.43,1.74-1.5,0.53-1.93c-4.25-1.52-8.02-4.17-10.94-7.61
				c-0.35-0.41-1.05-0.36-1.41,0C106.6,52.83,106.66,53.42,107.01,53.84L107.01,53.84z"/>
		</g>
	</g>
	<g>
		<g>
			<path d="M135.3,58.21c0.13,1.48,1.54,2.39,2.98,2.13c1.51-0.28,2.51-1.72,3.4-2.84c1.98-2.49,3.71-5.16,5.16-7.99
				c0.58-1.14-1.14-2.16-1.73-1.01c-1.15,2.25-2.48,4.41-3.98,6.45c-0.7,0.95-1.43,1.94-2.26,2.78c-0.28,0.28-0.66,0.64-1.06,0.66
				c-0.13,0.01-0.26-0.02-0.38-0.09c-0.06-0.03-0.14-0.16-0.13-0.09c-0.05-0.54-0.43-1-1-1C135.79,57.21,135.25,57.67,135.3,58.21
				L135.3,58.21z"/>
		</g>
	</g>
	<g>
		<g>
			<path d="M117.6,75.28c0.15-0.12,0.32-0.21,0.5-0.29c-0.08,0.03-0.16,0.07-0.24,0.1c0.18-0.07,0.36-0.12,0.55-0.15
				c-0.09,0.01-0.18,0.02-0.27,0.04c0.19-0.02,0.38-0.03,0.57,0c-0.09-0.01-0.18-0.02-0.27-0.04c0.12,0.02,0.24,0.04,0.36,0.08
				c-0.23-0.23-0.47-0.47-0.7-0.7c0.02,0.08,0.03,0.15,0.04,0.23c-0.01-0.09-0.02-0.18-0.04-0.27c0.03,0.22,0.03,0.44,0,0.66
				c0.01-0.09,0.02-0.18,0.04-0.27c-0.03,0.22-0.09,0.43-0.18,0.64c0.03-0.08,0.07-0.16,0.1-0.24c-0.08,0.19-0.19,0.37-0.31,0.54
				c0.05-0.07,0.1-0.13,0.16-0.2c-0.11,0.14-0.24,0.27-0.38,0.39c0.4-0.05,0.81-0.1,1.21-0.16c-0.05-0.03-0.09-0.06-0.13-0.09
				c0.07,0.05,0.13,0.1,0.2,0.16c-0.1-0.08-0.19-0.17-0.27-0.27c0.05,0.07,0.1,0.13,0.16,0.2c-0.08-0.11-0.15-0.23-0.21-0.36
				c0.03,0.08,0.07,0.16,0.1,0.24c-0.07-0.16-0.11-0.32-0.13-0.49c0.01,0.09,0.02,0.18,0.04,0.27c-0.02-0.16-0.02-0.32,0-0.48
				c-0.01,0.09-0.02,0.18-0.04,0.27c0.02-0.15,0.06-0.29,0.11-0.43c-0.03,0.08-0.07,0.16-0.1,0.24c0.05-0.13,0.12-0.25,0.21-0.36
				c-0.05,0.07-0.1,0.13-0.16,0.2c0.04-0.05,0.08-0.1,0.13-0.14c0.37-0.37,0.4-1.05,0-1.41c-0.4-0.37-1.02-0.39-1.41,0
				c-0.54,0.54-0.82,1.34-0.74,2.1c0.05,0.43,0.15,0.82,0.36,1.2c0.21,0.37,0.51,0.67,0.87,0.89c0.19,0.12,0.42,0.15,0.64,0.12
				c0.23-0.03,0.39-0.12,0.57-0.28c0.31-0.25,0.57-0.59,0.75-0.94c0.24-0.45,0.35-0.89,0.41-1.39c0.02-0.16,0.02-0.32,0.01-0.49
				c-0.04-0.46-0.11-0.95-0.55-1.21c-0.27-0.16-0.64-0.2-0.95-0.22c-0.21-0.02-0.42,0-0.62,0.03c-0.51,0.07-1.01,0.24-1.42,0.55
				c-0.22,0.16-0.38,0.32-0.46,0.6c-0.07,0.24-0.04,0.56,0.1,0.77c0.14,0.21,0.34,0.4,0.6,0.46
				C117.07,75.44,117.39,75.44,117.6,75.28L117.6,75.28z"/>
		</g>
	</g>
	<g>
		<g>
			<path d="M143.47,69.93c0.15-0.12,0.32-0.21,0.5-0.29c-0.08,0.03-0.16,0.07-0.24,0.1c0.18-0.07,0.36-0.12,0.55-0.15
				c-0.09,0.01-0.18,0.02-0.27,0.04c0.19-0.02,0.38-0.03,0.57,0c-0.09-0.01-0.18-0.02-0.27-0.04c0.12,0.02,0.24,0.04,0.36,0.08
				c-0.23-0.23-0.47-0.47-0.7-0.7c0.02,0.08,0.03,0.15,0.04,0.23c-0.01-0.09-0.02-0.18-0.04-0.27c0.03,0.22,0.03,0.44,0,0.66
				c0.01-0.09,0.02-0.18,0.04-0.27c-0.03,0.22-0.09,0.43-0.18,0.64c0.03-0.08,0.07-0.16,0.1-0.24c-0.08,0.19-0.19,0.37-0.31,0.54
				c0.05-0.07,0.1-0.13,0.16-0.2c-0.11,0.14-0.24,0.27-0.38,0.39c0.4-0.05,0.81-0.1,1.21-0.16c-0.05-0.03-0.09-0.06-0.13-0.09
				c0.07,0.05,0.13,0.1,0.2,0.16c-0.1-0.08-0.19-0.17-0.27-0.27c0.05,0.07,0.1,0.13,0.16,0.2c-0.08-0.11-0.15-0.23-0.21-0.36
				c0.03,0.08,0.07,0.16,0.1,0.24c-0.07-0.16-0.11-0.32-0.13-0.49c0.01,0.09,0.02,0.18,0.04,0.27c-0.02-0.16-0.02-0.32,0-0.48
				c-0.01,0.09-0.02,0.18-0.04,0.27c0.02-0.15,0.06-0.29,0.11-0.43c-0.03,0.08-0.07,0.16-0.1,0.24c0.05-0.13,0.12-0.25,0.21-0.36
				c-0.05,0.07-0.1,0.13-0.16,0.2c0.04-0.05,0.08-0.1,0.13-0.14c0.37-0.37,0.4-1.05,0-1.41c-0.4-0.37-1.02-0.39-1.41,0
				c-0.54,0.54-0.82,1.34-0.74,2.1c0.05,0.43,0.15,0.82,0.36,1.2c0.21,0.37,0.51,0.67,0.87,0.89c0.19,0.12,0.42,0.15,0.64,0.12
				c0.23-0.03,0.39-0.12,0.57-0.28c0.31-0.25,0.57-0.59,0.75-0.94c0.24-0.45,0.35-0.89,0.41-1.39c0.02-0.16,0.02-0.32,0.01-0.49
				c-0.04-0.46-0.11-0.95-0.55-1.21c-0.27-0.16-0.64-0.2-0.95-0.22c-0.21-0.02-0.42,0-0.62,0.03c-0.51,0.07-1.01,0.24-1.42,0.55
				c-0.22,0.16-0.38,0.32-0.46,0.6c-0.07,0.24-0.04,0.56,0.1,0.77c0.14,0.21,0.34,0.4,0.6,0.46
				C142.94,70.08,143.26,70.09,143.47,69.93L143.47,69.93z"/>
		</g>
	</g>
	<g>
		<g>
			<path d="M135.18,86.54c-2.93,0.76-4.99,3.49-5.22,6.47c-0.23,3.08,1.9,5.87,4.67,7.02c2.8,1.15,5.96,0.35,8.08-1.76
				c2.26-2.25,3.3-6.21,1.15-8.89c-2.65-3.29-7.24-2.25-10.67-1.12c-1.22,0.4-0.7,2.33,0.53,1.93c2.46-0.81,5.41-1.81,7.8-0.26
				c2.19,1.42,1.72,4.5,0.32,6.31c-1.31,1.7-3.54,2.72-5.67,2.2c-2.08-0.51-3.96-2.27-4.21-4.46c-0.28-2.43,1.38-4.89,3.74-5.5
				C136.95,88.15,136.43,86.22,135.18,86.54L135.18,86.54z"/>
		</g>
	</g>
</g>
<g>
	<g>
		<g>
			<path d="M120.01,113.27c2.73,3.21,6.29,5.62,10.25,7.03c0.51,0.18,1.09-0.21,1.23-0.7c0.15-0.55-0.19-1.05-0.7-1.23
				c-3.64-1.3-6.86-3.58-9.36-6.52c-0.35-0.41-1.05-0.36-1.41,0C119.6,112.26,119.66,112.85,120.01,113.27L120.01,113.27z"/>
		</g>
	</g>
	<g>
		<g>
			<path d="M144.34,116.94c0.12,1.37,1.41,2.22,2.74,1.97c1.33-0.25,2.21-1.5,2.99-2.48c1.71-2.16,3.22-4.46,4.47-6.91
				c0.58-1.14-1.14-2.16-1.73-1.01c-0.99,1.94-2.14,3.8-3.43,5.56c-0.6,0.81-1.22,1.65-1.93,2.37c-0.14,0.14-0.28,0.28-0.46,0.39
				c-0.15,0.09-0.3,0.14-0.35,0.14c-0.05,0-0.21-0.03-0.26-0.06c-0.07-0.04-0.01,0.01-0.1-0.08c0.04,0.04,0.05,0.07,0.05,0.13
				c-0.05-0.54-0.43-1-1-1C144.84,115.94,144.29,116.4,144.34,116.94L144.34,116.94z"/>
		</g>
	</g>
	<g>
		<g>
			<path d="M129.3,131.76c0.13-0.1,0.27-0.18,0.43-0.25c-0.08,0.03-0.16,0.07-0.24,0.1c0.15-0.06,0.31-0.1,0.48-0.13
				c-0.09,0.01-0.18,0.02-0.27,0.04c0.16-0.02,0.33-0.02,0.49,0c-0.09-0.01-0.18-0.02-0.27-0.04c0.11,0.01,0.21,0.04,0.31,0.07
				c-0.23-0.23-0.47-0.47-0.7-0.7c0.02,0.07,0.03,0.13,0.04,0.2c-0.01-0.09-0.02-0.18-0.04-0.27c0.02,0.19,0.02,0.38,0,0.57
				c0.01-0.09,0.02-0.18,0.04-0.27c-0.03,0.19-0.08,0.37-0.15,0.55c0.03-0.08,0.07-0.16,0.1-0.24c-0.07,0.17-0.16,0.32-0.27,0.46
				c0.05-0.07,0.1-0.13,0.16-0.2c-0.1,0.12-0.2,0.24-0.33,0.34c0.4-0.05,0.81-0.1,1.21-0.16c-0.04-0.02-0.08-0.05-0.11-0.08
				c0.07,0.05,0.13,0.1,0.2,0.16c-0.09-0.07-0.16-0.15-0.23-0.23c0.05,0.07,0.1,0.13,0.16,0.2c-0.07-0.1-0.13-0.2-0.18-0.31
				c0.03,0.08,0.07,0.16,0.1,0.24c-0.06-0.14-0.09-0.28-0.11-0.43c0.01,0.09,0.02,0.18,0.04,0.27c-0.02-0.14-0.02-0.28,0-0.41
				c-0.01,0.09-0.02,0.18-0.04,0.27c0.02-0.13,0.05-0.25,0.1-0.37c-0.03,0.08-0.07,0.16-0.1,0.24c0.05-0.11,0.11-0.21,0.18-0.31
				c-0.05,0.07-0.1,0.13-0.16,0.2c0.03-0.04,0.07-0.08,0.11-0.12c0.18-0.18,0.29-0.45,0.29-0.71c0-0.25-0.11-0.54-0.29-0.71
				c-0.4-0.37-1.02-0.39-1.41,0c-0.27,0.27-0.46,0.61-0.58,0.97c-0.06,0.19-0.08,0.39-0.1,0.59c-0.01,0.12-0.01,0.23,0,0.35
				c0.04,0.39,0.13,0.76,0.33,1.1c0.19,0.34,0.47,0.61,0.8,0.82c0.19,0.12,0.42,0.15,0.64,0.12c0.23-0.03,0.39-0.12,0.57-0.28
				c0.27-0.23,0.51-0.52,0.67-0.84c0.22-0.41,0.32-0.81,0.37-1.27c0.02-0.14,0.02-0.28,0.01-0.42c-0.04-0.45-0.11-0.91-0.54-1.16
				c-0.26-0.15-0.6-0.19-0.89-0.21c-0.19-0.02-0.37,0-0.56,0.03c-0.45,0.06-0.91,0.21-1.28,0.49c-0.12,0.06-0.21,0.15-0.28,0.26
				c-0.09,0.1-0.15,0.21-0.18,0.34c-0.07,0.24-0.04,0.56,0.1,0.77c0.14,0.21,0.34,0.4,0.6,0.46
				C128.77,131.92,129.09,131.92,129.3,131.76L129.3,131.76z"/>
		</g>
	</g>
	<g>
		<g>
			<path d="M151.59,127.15c0.13-0.1,0.27-0.18,0.43-0.25c-0.08,0.03-0.16,0.07-0.24,0.1c0.15-0.06,0.31-0.1,0.48-0.13
				c-0.09,0.01-0.18,0.02-0.27,0.04c0.16-0.02,0.33-0.02,0.49,0c-0.09-0.01-0.18-0.02-0.27-0.04c0.11,0.01,0.21,0.04,0.31,0.07
				c-0.23-0.23-0.47-0.47-0.7-0.7c0.02,0.07,0.03,0.13,0.04,0.2c-0.01-0.09-0.02-0.18-0.04-0.27c0.02,0.19,0.02,0.38,0,0.57
				c0.01-0.09,0.02-0.18,0.04-0.27c-0.03,0.19-0.08,0.37-0.15,0.55c0.03-0.08,0.07-0.16,0.1-0.24c-0.07,0.17-0.16,0.32-0.27,0.46
				c0.05-0.07,0.1-0.13,0.16-0.2c-0.1,0.12-0.2,0.24-0.33,0.34c0.4-0.05,0.81-0.1,1.21-0.16c-0.04-0.02-0.08-0.05-0.11-0.08
				c0.07,0.05,0.13,0.1,0.2,0.16c-0.09-0.07-0.16-0.15-0.23-0.23c0.05,0.07,0.1,0.13,0.16,0.2c-0.07-0.1-0.13-0.2-0.18-0.31
				c0.03,0.08,0.07,0.16,0.1,0.24c-0.06-0.14-0.09-0.28-0.11-0.43c0.01,0.09,0.02,0.18,0.04,0.27c-0.02-0.14-0.02-0.28,0-0.41
				c-0.01,0.09-0.02,0.18-0.04,0.27c0.02-0.13,0.05-0.25,0.1-0.37c-0.03,0.08-0.07,0.16-0.1,0.24c0.05-0.11,0.11-0.21,0.18-0.31
				c-0.05,0.07-0.1,0.13-0.16,0.2c0.03-0.04,0.07-0.08,0.11-0.12c0.18-0.18,0.29-0.45,0.29-0.71c0-0.25-0.11-0.54-0.29-0.71
				c-0.4-0.37-1.02-0.39-1.41,0c-0.27,0.27-0.46,0.61-0.58,0.97c-0.06,0.19-0.08,0.39-0.1,0.59c-0.01,0.12-0.01,0.23,0,0.35
				c0.04,0.39,0.13,0.76,0.33,1.1c0.19,0.34,0.47,0.61,0.8,0.82c0.19,0.12,0.42,0.15,0.64,0.12c0.23-0.03,0.39-0.12,0.57-0.28
				c0.27-0.23,0.51-0.52,0.67-0.84c0.22-0.41,0.32-0.81,0.37-1.27c0.02-0.14,0.02-0.28,0.01-0.42c-0.04-0.45-0.11-0.91-0.54-1.16
				c-0.26-0.15-0.6-0.19-0.89-0.21c-0.19-0.02-0.37,0-0.56,0.03c-0.45,0.06-0.91,0.21-1.28,0.49c-0.12,0.06-0.21,0.15-0.28,0.26
				c-0.09,0.1-0.15,0.21-0.18,0.34c-0.07,0.24-0.04,0.56,0.1,0.77c0.14,0.21,0.34,0.4,0.6,0.46
				C151.06,127.31,151.38,127.31,151.59,127.15L151.59,127.15z"/>
		</g>
	</g>
	<g>
		<g>
			<path d="M144.34,141.21c-2.58,0.67-4.4,3.08-4.6,5.71c-0.2,2.72,1.68,5.17,4.12,6.18c2.46,1.01,5.24,0.3,7.1-1.55
				c2.01-2,2.89-5.49,0.99-7.85c-2.31-2.88-6.33-1.99-9.33-1c-1.22,0.4-0.7,2.33,0.53,1.93c2.08-0.68,4.59-1.55,6.61-0.24
				c1.82,1.18,1.38,3.75,0.23,5.25c-1.09,1.41-2.96,2.26-4.73,1.83c-1.73-0.42-3.3-1.89-3.53-3.71c-0.25-2.03,1.15-4.1,3.12-4.61
				C146.12,142.82,145.59,140.89,144.34,141.21L144.34,141.21z"/>
		</g>
	</g>
</g>
</svg>
