<?xml version="1.0" encoding="utf-8"?>
<!-- Generator: Adobe Illustrator 23.1.0, SVG Export Plug-In . SVG Version: 6.00 Build 0)  -->
<svg version="1.1" id="图层_1" xmlns="http://www.w3.org/2000/svg" xmlns:xlink="http://www.w3.org/1999/xlink" x="0px" y="0px"
	 viewBox="0 0 160 160" style="enable-background:new 0 0 160 160;" xml:space="preserve">
<style type="text/css">
	.st0{fill:#FFFFFF;stroke:#000000;stroke-miterlimit:10;}
</style>
<path class="st0" d="M145.5,80c0-8.91-1.84-17.39-5.16-25.09l12.09-8.15l-13.42-19.9l-12.15,8.2c-8.91-8.89-20.45-15.13-33.35-17.5
	V3.5h-24v14.24c-12.5,2.5-23.67,8.65-32.35,17.32l-12.15-8.2l-13.42,19.9l12.09,8.15C20.34,62.61,18.5,71.09,18.5,80
	s1.84,17.39,5.16,25.09l-12.09,8.15l13.42,19.9l12.15-8.2c8.91,8.89,20.45,15.13,33.35,17.5v14.06h24v-14.24
	c12.78-2.55,24.18-8.95,32.94-17.92l11.57,7.8l13.42-19.9l-11.76-7.93C143.78,96.82,145.5,88.61,145.5,80z M82,118.5
	c-21.26,0-38.5-17.24-38.5-38.5c0-21.26,17.24-38.5,38.5-38.5s38.5,17.24,38.5,38.5C120.5,101.26,103.26,118.5,82,118.5z"/>
</svg>
