<?xml version="1.0" encoding="utf-8"?>
<!-- Generator: Adobe Illustrator 23.1.0, SVG Export Plug-In . SVG Version: 6.00 Build 0)  -->
<svg version="1.1" id="图层_1" xmlns="http://www.w3.org/2000/svg" xmlns:xlink="http://www.w3.org/1999/xlink" x="0px" y="0px"
	 viewBox="0 0 160 160" style="enable-background:new 0 0 160 160;" xml:space="preserve">
<style type="text/css">
	.st0{fill:#FFFFFF;}
	.st1{fill:none;stroke:#000000;stroke-miterlimit:10;}
</style>
<g>
	<path class="st0" d="M95.44,53.83C71.9,88.03,48.3,122.31,28.8,158.96l-0.58-1.57c-8.23-2.94-16.47-5.89-24.7-8.83l0.08-0.6
		c11.71-37.82,24.62-75.27,38.7-112.27l-1.88,1.11C54.5,24.14,69.5,12.5,85.26,2l-3.4,1.48c7.59,17.43,8.65,37.08,15.59,54.77"/>
	<g>
		<path d="M95.01,53.58C85.8,66.95,76.6,80.32,67.62,93.86c-8.94,13.48-17.65,27.12-25.87,41.05c-4.63,7.84-9.1,15.77-13.38,23.81
			c0.3,0.04,0.61,0.08,0.91,0.12c-0.18-0.47-0.33-0.96-0.53-1.42c-0.32-0.76-1.44-0.87-2.17-1.13c-2.55-0.91-5.1-1.82-7.65-2.73
			c-5.1-1.82-10.2-3.65-15.29-5.47c0.12,0.16,0.24,0.32,0.37,0.48c0.2-1.54,0.87-3.1,1.34-4.59c0.58-1.86,1.16-3.72,1.75-5.58
			c1.19-3.77,2.39-7.53,3.6-11.29c2.41-7.47,4.86-14.92,7.37-22.36c4.97-14.78,10.13-29.49,15.47-44.14
			c3.02-8.29,6.1-16.55,9.24-24.8c0.16-0.42-0.38-0.77-0.73-0.56c-0.63,0.37-1.26,0.74-1.88,1.11c0.2,0.26,0.4,0.52,0.61,0.79
			c10.97-9.85,22.49-19.09,34.5-27.65c3.38-2.41,6.8-4.76,10.25-7.06c0.55-0.36,0.08-1.12-0.5-0.86c-1.13,0.49-2.27,0.99-3.4,1.48
			c-0.27,0.12-0.28,0.46-0.18,0.68c5.93,13.67,7.84,28.57,11.71,42.85c1.08,3.99,2.32,7.94,3.83,11.8c0.23,0.59,1.2,0.33,0.96-0.27
			c-5.43-13.91-7.25-28.84-11.43-43.11c-1.17-4.01-2.55-7.95-4.21-11.78c-0.06,0.23-0.12,0.46-0.18,0.68
			c1.13-0.49,2.27-0.99,3.4-1.48c-0.17-0.29-0.34-0.58-0.5-0.86c-12.3,8.2-24.14,17.08-35.45,26.61c-3.21,2.7-6.38,5.46-9.5,8.26
			c-0.43,0.38,0.12,1.07,0.61,0.79c0.63-0.37,1.26-0.74,1.88-1.11c-0.24-0.19-0.49-0.38-0.73-0.56
			c-5.6,14.71-11.02,29.5-16.25,44.35c-5.23,14.85-10.27,29.77-15.12,44.75c-1.34,4.15-2.67,8.3-3.99,12.46
			c-0.66,2.1-1.33,4.21-1.98,6.31c-0.52,1.68-1.24,3.4-1.47,5.15c-0.03,0.23,0.18,0.41,0.37,0.48c8.23,2.94,16.47,5.89,24.7,8.83
			c-0.12-0.12-0.23-0.23-0.35-0.35c0.19,0.52,0.39,1.05,0.58,1.57c0.14,0.38,0.7,0.53,0.91,0.12c7.62-14.32,15.87-28.3,24.5-42.03
			c8.61-13.71,17.58-27.18,26.68-40.55c5.13-7.53,10.29-15.04,15.46-22.55C96.24,53.55,95.37,53.05,95.01,53.58L95.01,53.58z"/>
	</g>
</g>
<line class="st1" x1="81.5" y1="3.5" x2="16.5" y2="153.5"/>
<g>
	<path class="st0" d="M70.17,88.31c19.3,17.35,38.6,34.69,57.9,52.04l-0.34,0.71c10.02-4.06,19.81-8.66,29.33-13.79l-1.11-1.59
		c0.21,0.71,0.41,1.41,0.62,2.12c-10.57-30.06-23.03-59.46-37.3-87.96l-0.52-0.6c-18.45-2.6-35.57-11.98-54.15-13.39l-1.1,1.87
		c1.78,21.68,3.82,43.34,6.1,64.97"/>
	<g>
		<path d="M69.82,88.67c7.55,6.78,15.09,13.57,22.64,20.35c7.52,6.75,15.03,13.51,22.55,20.26c4.24,3.81,8.47,7.62,12.71,11.42
			c-0.03-0.2-0.05-0.4-0.08-0.61c-0.11,0.24-0.22,0.47-0.34,0.71c-0.16,0.34,0.12,0.91,0.56,0.73c7.81-3.17,15.49-6.65,23.01-10.47
			c2.16-1.1,4.31-2.22,6.44-3.37c0.22-0.12,0.33-0.47,0.18-0.68c-0.37-0.53-0.74-1.06-1.11-1.59c-0.31-0.44-1.08-0.19-0.91,0.39
			c0.21,0.71,0.41,1.41,0.62,2.12c0.32-0.09,0.64-0.18,0.96-0.27c-3.44-9.77-7.07-19.47-10.9-29.09c-3.8-9.55-7.8-19.02-11.99-28.41
			c-4.22-9.46-8.63-18.83-13.23-28.11c-0.44-0.89-0.8-1.98-1.45-2.73c-0.15-0.18-0.32-0.43-0.54-0.53c-0.2-0.09-0.5-0.09-0.72-0.12
			c-0.37-0.06-0.74-0.11-1.1-0.17c-2.35-0.39-4.68-0.88-7-1.44c-4.72-1.14-9.36-2.58-13.98-4.06c-9.18-2.93-18.38-6.03-27.98-7.27
			c-1.18-0.15-2.36-0.27-3.55-0.37c-0.17-0.01-0.35,0.1-0.43,0.25c-0.19,0.33-0.39,0.66-0.58,0.99c-0.19,0.32-0.51,0.7-0.58,1.07
			c-0.09,0.47,0.07,1.08,0.11,1.56c0.05,0.62,0.1,1.24,0.15,1.86c0.1,1.2,0.2,2.4,0.3,3.6c0.4,4.67,0.8,9.35,1.22,14.02
			c0.84,9.39,1.73,18.77,2.67,28.14C68,82.13,68.54,87.41,69.1,92.7c0.07,0.63,1.07,0.64,1,0c-0.98-9.29-1.92-18.58-2.8-27.88
			c-0.88-9.26-1.72-18.52-2.52-27.78c-0.22-2.61-0.44-5.21-0.66-7.82c-0.03-0.33-0.03-0.67-0.08-0.99
			c-0.03-0.16-0.08-0.24-0.07-0.31c0.03-0.19,0.27-0.45,0.36-0.61c0.23-0.4,0.47-0.8,0.7-1.19c-0.14,0.08-0.29,0.17-0.43,0.25
			c9.56,0.74,18.76,3.6,27.84,6.51c4.56,1.46,9.11,2.94,13.73,4.21c2.3,0.63,4.61,1.2,6.95,1.69c1.17,0.24,2.34,0.47,3.51,0.66
			c0.57,0.09,1.22,0.11,1.77,0.27c0.06,0.02-0.09-0.11,0.06-0.03c0.04,0.02,0.06,0.08,0.09,0.11c0.11,0.09,0.24,0.25,0.32,0.37
			c0.3,0.42,0.49,0.99,0.72,1.46c0.28,0.57,0.57,1.14,0.85,1.71c0.57,1.14,1.13,2.29,1.69,3.43c1.12,2.29,2.23,4.59,3.32,6.89
			c2.19,4.6,4.34,9.23,6.43,13.88c4.21,9.33,8.23,18.74,12.06,28.23c3.81,9.46,7.44,18.99,10.87,28.59c0.43,1.2,0.85,2.4,1.28,3.6
			c0.21,0.6,1.15,0.36,0.96-0.27c-0.21-0.71-0.41-1.41-0.62-2.12c-0.3,0.13-0.61,0.26-0.91,0.39c0.37,0.53,0.74,1.06,1.11,1.59
			c0.06-0.23,0.12-0.46,0.18-0.68c-7.35,3.96-14.86,7.61-22.51,10.93c-2.22,0.96-4.45,1.9-6.7,2.81c0.19,0.24,0.38,0.49,0.56,0.73
			c0.11-0.24,0.22-0.47,0.34-0.71c0.09-0.19,0.09-0.45-0.08-0.61c-7.55-6.78-15.09-13.57-22.64-20.35
			c-7.52-6.75-15.03-13.51-22.55-20.26c-4.24-3.81-8.47-7.62-12.71-11.42C70.05,87.53,69.34,88.23,69.82,88.67L69.82,88.67z"/>
	</g>
</g>
<line class="st1" x1="63.5" y1="27.5" x2="141.5" y2="134.5"/>
</svg>
