<?xml version="1.0" encoding="utf-8"?>
<!-- Generator: Adobe Illustrator 23.1.0, SVG Export Plug-In . SVG Version: 6.00 Build 0)  -->
<svg version="1.1" id="图层_1" xmlns="http://www.w3.org/2000/svg" xmlns:xlink="http://www.w3.org/1999/xlink" x="0px" y="0px"
	 viewBox="0 0 160 160" style="enable-background:new 0 0 160 160;" xml:space="preserve">
<style type="text/css">
	.st0{fill:#FFFFFF;stroke:#000000;stroke-miterlimit:10;}
	.st1{fill:none;stroke:#000000;stroke-miterlimit:10;}
</style>
<polygon class="st0" points="11.52,6.17 1.5,43.4 83.11,143.61 98.85,133.59 48.75,14.76 "/>
<line class="st1" x1="11.52" y1="6.17" x2="90.26" y2="139.32"/>
<polyline class="st0" points="97.42,135.02 101.72,156.5 84.54,143.61 71.65,152.2 113.17,125 "/>
<g>
	<g>
		<path d="M95.9,41.43c4.98,5.86,11.47,10.29,18.7,12.87c1.21,0.43,1.74-1.5,0.53-1.93c-6.92-2.47-13.07-6.77-17.82-12.36
			C96.48,39.03,95.07,40.45,95.9,41.43L95.9,41.43z"/>
	</g>
</g>
<g>
	<g>
		<path d="M141.47,48.88c0.17,1.97,2.11,3.17,4.01,2.83c2.3-0.42,3.84-2.71,5.19-4.41c3.15-3.95,5.89-8.2,8.19-12.7
			c0.58-1.14-1.14-2.16-1.73-1.01c-1.85,3.62-3.98,7.08-6.39,10.35c-1.16,1.57-2.35,3.19-3.73,4.59c-0.56,0.57-1.28,1.2-2.12,1.24
			c-0.53,0.02-1.37-0.26-1.43-0.89C143.36,47.6,141.36,47.59,141.47,48.88L141.47,48.88z"/>
	</g>
</g>
<g>
	<g>
		<path d="M112.16,75.74c0.21-0.16,0.44-0.29,0.68-0.41c0.21-0.1-0.21,0.07,0,0c0.06-0.02,0.12-0.04,0.19-0.06
			c0.13-0.04,0.25-0.07,0.38-0.1c0.02,0,0.04-0.01,0.06-0.01c0.11-0.02,0.09-0.01-0.07,0.01c0.01,0.01,0.18-0.02,0.2-0.02
			c0.13-0.01,0.26-0.01,0.4,0c0.03,0,0.19,0.03,0.2,0.02c-0.01,0.02-0.25-0.04-0.04,0c0.14,0.02,0.28,0.06,0.42,0.1
			c-0.23-0.23-0.47-0.47-0.7-0.7c0.02,0.08,0.04,0.16,0.05,0.25c0.03,0.14-0.01-0.04-0.01-0.08c0,0.04,0.01,0.08,0.01,0.12
			c0.02,0.18,0.02,0.35,0.01,0.53c0,0.08-0.01,0.17-0.02,0.25c-0.01,0.13,0.04-0.21,0.01-0.08c-0.01,0.04-0.01,0.08-0.02,0.12
			c-0.03,0.17-0.08,0.35-0.14,0.51c-0.03,0.08-0.07,0.16-0.09,0.23c0.01-0.04,0.08-0.19,0.03-0.07c-0.02,0.04-0.04,0.08-0.05,0.11
			c-0.07,0.15-0.16,0.29-0.25,0.43c-0.02,0.03-0.05,0.07-0.07,0.1c-0.08,0.12,0.01-0.04,0.04-0.05c-0.05,0.01-0.14,0.17-0.18,0.21
			c-0.12,0.13-0.25,0.25-0.39,0.36c0.4-0.05,0.81-0.1,1.21-0.16c-0.04-0.03-0.09-0.06-0.13-0.09c-0.14-0.09,0.15,0.13,0.06,0.05
			c-0.07-0.07-0.14-0.12-0.2-0.19c-0.03-0.04-0.07-0.08-0.1-0.11c-0.11-0.12,0.11,0.16,0.05,0.06c-0.05-0.08-0.1-0.15-0.15-0.24
			c-0.04-0.07-0.07-0.16-0.12-0.23c0.14,0.22,0.06,0.14,0.02,0.05c-0.01-0.04-0.03-0.08-0.04-0.12c-0.03-0.09-0.05-0.18-0.07-0.27
			c-0.01-0.04-0.02-0.08-0.02-0.13c-0.04-0.22,0.01,0.17,0.01,0.06c-0.01-0.18-0.02-0.36-0.01-0.54c0.01-0.09,0.06-0.23-0.01,0.06
			c0.01-0.04,0.01-0.08,0.02-0.13c0.02-0.09,0.04-0.18,0.07-0.27c0.01-0.04,0.03-0.08,0.04-0.12c0.05-0.16-0.01,0.02-0.04,0.07
			c0.05-0.09,0.09-0.18,0.14-0.27c0.04-0.07,0.1-0.14,0.14-0.21c-0.13,0.23-0.09,0.11-0.03,0.04c0.03-0.04,0.07-0.08,0.11-0.11
			c0.37-0.37,0.4-1.05,0-1.41c-0.4-0.37-1.02-0.39-1.41,0c-1.63,1.62-1.26,4.57,0.67,5.78c0.4,0.25,0.87,0.12,1.21-0.16
			c1-0.83,1.55-2.05,1.7-3.31c0.03-0.26,0.03-0.52,0.01-0.78c-0.04-0.51-0.1-1.13-0.59-1.42c-0.34-0.2-0.83-0.24-1.21-0.28
			c-0.31-0.03-0.61-0.01-0.92,0.04c-0.74,0.1-1.46,0.36-2.06,0.82c-0.22,0.16-0.38,0.32-0.46,0.6c-0.07,0.24-0.04,0.56,0.1,0.77
			C111.05,75.79,111.71,76.08,112.16,75.74L112.16,75.74z"/>
	</g>
</g>
<g>
	<g>
		<path d="M153.68,67.15c0.21-0.16,0.44-0.29,0.68-0.41c0.21-0.1-0.21,0.07,0,0c0.06-0.02,0.12-0.04,0.19-0.06
			c0.13-0.04,0.25-0.07,0.38-0.1c0.02,0,0.04-0.01,0.06-0.01c0.11-0.02,0.09-0.01-0.07,0.01c0.01,0.01,0.18-0.02,0.2-0.02
			c0.13-0.01,0.26-0.01,0.4,0c0.03,0,0.19,0.03,0.2,0.02c-0.01,0.02-0.25-0.04-0.04,0c0.14,0.02,0.28,0.06,0.42,0.1
			c-0.23-0.23-0.47-0.47-0.7-0.7c0.02,0.08,0.04,0.16,0.05,0.25c0.03,0.14-0.01-0.04-0.01-0.08c0,0.04,0.01,0.08,0.01,0.12
			c0.02,0.18,0.02,0.35,0.01,0.53c0,0.08-0.01,0.17-0.02,0.25c-0.01,0.13,0.04-0.21,0.01-0.08c-0.01,0.04-0.01,0.08-0.02,0.12
			c-0.03,0.17-0.08,0.35-0.14,0.51c-0.03,0.08-0.07,0.16-0.09,0.23c0.01-0.04,0.08-0.19,0.03-0.07c-0.02,0.04-0.04,0.08-0.05,0.11
			c-0.07,0.15-0.16,0.29-0.25,0.43c-0.02,0.03-0.05,0.07-0.07,0.1c-0.08,0.12,0.01-0.04,0.04-0.05c-0.05,0.01-0.14,0.17-0.18,0.21
			c-0.12,0.13-0.25,0.25-0.39,0.36c0.4-0.05,0.81-0.1,1.21-0.16c-0.04-0.03-0.09-0.06-0.13-0.09c-0.14-0.09,0.15,0.13,0.06,0.05
			c-0.07-0.07-0.14-0.12-0.2-0.19c-0.03-0.04-0.07-0.08-0.1-0.11c-0.11-0.12,0.11,0.16,0.05,0.06c-0.05-0.08-0.1-0.15-0.15-0.24
			c-0.04-0.07-0.07-0.16-0.12-0.23c0.14,0.22,0.06,0.14,0.02,0.05c-0.01-0.04-0.03-0.08-0.04-0.12c-0.03-0.09-0.05-0.18-0.07-0.27
			c-0.01-0.04-0.02-0.08-0.02-0.13c-0.04-0.22,0.01,0.17,0.01,0.06c-0.01-0.18-0.02-0.36-0.01-0.54c0.01-0.09,0.06-0.23-0.01,0.06
			c0.01-0.04,0.01-0.08,0.02-0.13c0.02-0.09,0.04-0.18,0.07-0.27c0.01-0.04,0.03-0.08,0.04-0.12c0.05-0.16-0.01,0.02-0.04,0.07
			c0.05-0.09,0.09-0.18,0.14-0.27c0.04-0.07,0.1-0.14,0.14-0.21c-0.13,0.23-0.09,0.11-0.03,0.04c0.03-0.04,0.07-0.08,0.11-0.11
			c0.37-0.37,0.4-1.05,0-1.41c-0.4-0.37-1.02-0.39-1.41,0c-1.63,1.62-1.26,4.57,0.67,5.78c0.4,0.25,0.87,0.12,1.21-0.16
			c1-0.83,1.55-2.05,1.7-3.31c0.03-0.26,0.03-0.52,0.01-0.78c-0.04-0.51-0.1-1.13-0.59-1.42c-0.34-0.2-0.83-0.24-1.21-0.28
			c-0.31-0.03-0.61-0.01-0.92,0.04c-0.74,0.1-1.46,0.36-2.06,0.82c-0.22,0.16-0.38,0.32-0.46,0.6c-0.07,0.24-0.04,0.56,0.1,0.77
			C152.57,67.2,153.23,67.49,153.68,67.15L153.68,67.15z"/>
	</g>
</g>
<g>
	<g>
		<path d="M140.84,94.92c-4.42,1.15-7.59,5.29-7.93,9.8c-0.35,4.67,2.84,8.93,7.04,10.67c4.29,1.79,9.13,0.57,12.38-2.66
			c3.39-3.37,5.06-9.36,1.85-13.41c-4.07-5.12-11.26-3.37-16.53-1.64c-1.22,0.4-0.7,2.33,0.53,1.93c4.11-1.35,9-2.93,12.98-0.36
			c3.8,2.46,3.17,7.74,0.74,10.96c-2.24,2.96-6.1,4.7-9.78,3.81c-3.6-0.88-6.79-3.97-7.2-7.75c-0.45-4.16,2.39-8.36,6.44-9.42
			C142.61,96.52,142.08,94.59,140.84,94.92L140.84,94.92z"/>
	</g>
</g>
</svg>
