<?xml version="1.0" encoding="utf-8"?>
<!-- Generator: Adobe Illustrator 23.1.0, SVG Export Plug-In . SVG Version: 6.00 Build 0)  -->
<svg version="1.1" id="图层_1" xmlns="http://www.w3.org/2000/svg" xmlns:xlink="http://www.w3.org/1999/xlink" x="0px" y="0px"
	 viewBox="0 0 160 160" style="enable-background:new 0 0 160 160;" xml:space="preserve">
<style type="text/css">
	.st0{fill:#FFFFFF;}
</style>
<g>
	<path class="st0" d="M138.94,57c0.81,23.57,1.27,47.15,1.4,70.73l0.28-0.62c-37.63,9.87-76.68,12.82-115.48,15.72L24.92,143
		c-4.22-28.15-6.43-56.57-6.61-85L2.99,73.73c18.81-18.93,38-37.5,57.55-55.67c2.61-2.42,5.67-5.01,9.22-4.72l0.99-0.2
		c4.08,0.34,7.68,2.68,11.09,4.96C107.22,35.05,132.61,52,158,68.94"/>
	<g>
		<path d="M137.94,57c0.63,18.34,1.05,36.69,1.26,55.04c0.06,5.23,0.1,10.46,0.13,15.69c0,0.93,1.44,1.45,1.86,0.5
			c0.09-0.21,0.19-0.41,0.28-0.62c0.35-0.77-0.23-1.71-1.13-1.47c-29.81,7.79-60.5,11.28-91.15,13.82c-4.33,0.36-8.66,0.7-13,1.03
			c-2.09,0.16-4.17,0.32-6.26,0.47c-1.12,0.08-2.25,0.17-3.37,0.25c-0.73,0.05-1.56-0.04-2.17,0.41c0.49,0.2,0.98,0.4,1.47,0.6
			c-3.27-21.87-5.33-43.91-6.16-66.01c-0.23-6.24-0.37-12.48-0.41-18.73c-0.01-0.86-1.1-1.33-1.71-0.71
			c-4.46,4.57-8.91,9.15-13.37,13.72c-0.65,0.67-1.3,1.34-1.95,2.01c-0.9,0.92,0.5,2.33,1.41,1.41
			c18.18-18.3,36.71-36.25,55.58-53.84c2.04-1.9,4.05-4.02,6.54-5.34c1.33-0.71,2.49-0.8,3.94-0.91c0.29-0.02,0.57-0.13,0.86-0.16
			c0.51-0.05,1,0.06,1.52,0.17c2.83,0.6,5.37,2.11,7.77,3.67c2.7,1.76,5.37,3.57,8.05,5.36c10.9,7.28,21.8,14.55,32.7,21.83
			c12.28,8.2,24.56,16.4,36.84,24.59c1.07,0.72,2.08-1.02,1.01-1.73c-22.42-14.97-44.85-29.94-67.27-44.9
			c-2.83-1.89-5.66-3.78-8.49-5.66c-2.34-1.56-4.68-3.13-7.29-4.2c-1.25-0.51-2.54-0.89-3.88-1.08c-0.78-0.11-1.46,0.04-2.22,0.08
			c-2.69,0.14-4.88,1.19-6.99,2.83c-2.42,1.88-4.59,4.1-6.82,6.19c-2.38,2.22-4.75,4.45-7.12,6.69c-4.85,4.58-9.68,9.19-14.49,13.82
			C23.27,52.13,12.72,62.52,2.28,73.02c0.47,0.47,0.94,0.94,1.41,1.41c4.46-4.57,8.91-9.15,13.37-13.72
			c0.65-0.67,1.3-1.34,1.95-2.01c-0.57-0.24-1.14-0.47-1.71-0.71c0.15,22.27,1.53,44.54,4.15,66.66c0.74,6.22,1.57,12.42,2.5,18.61
			c0.09,0.6,0.99,0.96,1.47,0.6c0.41-0.3,1.59-0.17,2.12-0.21c0.96-0.07,1.92-0.14,2.89-0.22c1.93-0.15,3.85-0.29,5.78-0.44
			c3.85-0.3,7.7-0.6,11.55-0.91c7.54-0.62,15.08-1.29,22.61-2.06c15.11-1.55,30.2-3.51,45.13-6.3c8.52-1.59,17-3.46,25.39-5.65
			c-0.38-0.49-0.75-0.98-1.13-1.47c-0.09,0.21-0.19,0.41-0.28,0.62c0.62,0.17,1.24,0.34,1.86,0.5c-0.1-18.35-0.4-36.7-0.91-55.05
			c-0.15-5.23-0.31-10.46-0.49-15.69C139.9,55.72,137.9,55.71,137.94,57L137.94,57z"/>
	</g>
</g>
<g>
	<g>
		<g>
			<path d="M55.89,74.46c3.61,4.24,8.31,7.44,13.54,9.31c1.21,0.43,1.74-1.5,0.53-1.93c-4.92-1.76-9.28-4.82-12.66-8.79
				C56.47,72.07,55.06,73.49,55.89,74.46L55.89,74.46z"/>
		</g>
	</g>
	<g>
		<g>
			<path d="M88.5,79.61c0.14,1.61,1.68,2.58,3.23,2.3c1.7-0.31,2.85-1.97,3.85-3.23c2.27-2.86,4.26-5.92,5.92-9.17
				c0.58-1.14-1.14-2.16-1.73-1.01c-1.33,2.59-2.85,5.08-4.58,7.43c-0.82,1.11-1.66,2.25-2.63,3.23c-0.35,0.35-0.8,0.78-1.32,0.81
				c-0.19,0.01-0.72-0.08-0.74-0.35C90.39,78.33,88.38,78.32,88.5,79.61L88.5,79.61z"/>
		</g>
	</g>
	<g>
		<g>
			<path d="M67.89,99.13c0.18-0.13,0.37-0.24,0.57-0.33c-0.08,0.03-0.16,0.07-0.24,0.1c0.21-0.08,0.42-0.14,0.64-0.17
				c-0.09,0.01-0.18,0.02-0.27,0.04c0.22-0.03,0.44-0.03,0.66,0c-0.09-0.01-0.18-0.02-0.27-0.04c0.14,0.02,0.28,0.05,0.42,0.09
				c-0.23-0.23-0.47-0.47-0.7-0.7c0.02,0.09,0.04,0.18,0.05,0.26c-0.01-0.09-0.02-0.18-0.04-0.27c0.03,0.25,0.03,0.51,0,0.76
				c0.01-0.09,0.02-0.18,0.04-0.27c-0.04,0.25-0.11,0.5-0.2,0.73c0.03-0.08,0.07-0.16,0.1-0.24c-0.1,0.22-0.21,0.43-0.36,0.62
				c0.05-0.07,0.1-0.13,0.16-0.2c-0.13,0.17-0.27,0.32-0.44,0.45c0.4-0.05,0.81-0.1,1.21-0.16c-0.05-0.03-0.1-0.07-0.15-0.11
				c0.07,0.05,0.13,0.1,0.2,0.16c-0.11-0.09-0.22-0.2-0.31-0.31c0.05,0.07,0.1,0.13,0.16,0.2c-0.1-0.13-0.17-0.26-0.24-0.41
				c0.03,0.08,0.07,0.16,0.1,0.24c-0.08-0.18-0.13-0.37-0.15-0.57c0.01,0.09,0.02,0.18,0.04,0.27c-0.02-0.18-0.02-0.37,0-0.55
				c-0.01,0.09-0.02,0.18-0.04,0.27c0.02-0.17,0.07-0.34,0.13-0.5c-0.03,0.08-0.07,0.16-0.1,0.24c0.06-0.15,0.14-0.28,0.24-0.41
				c-0.05,0.07-0.1,0.13-0.16,0.2c0.05-0.06,0.1-0.11,0.15-0.16c0.37-0.37,0.4-1.05,0-1.41c-0.4-0.37-1.02-0.39-1.41,0
				c-1.3,1.29-1,3.62,0.54,4.59c0.19,0.12,0.42,0.15,0.64,0.12c0.23-0.03,0.39-0.12,0.57-0.28c0.34-0.28,0.64-0.66,0.85-1.05
				c0.26-0.49,0.39-0.98,0.45-1.53c0.02-0.19,0.02-0.37,0.01-0.56c-0.04-0.47-0.1-0.99-0.56-1.26c-0.29-0.17-0.69-0.21-1.01-0.24
				c-0.24-0.02-0.47,0-0.7,0.03c-0.56,0.08-1.12,0.27-1.58,0.62c-0.22,0.16-0.38,0.32-0.46,0.6c-0.07,0.24-0.04,0.56,0.1,0.77
				c0.14,0.21,0.34,0.4,0.6,0.46C67.36,99.28,67.68,99.29,67.89,99.13L67.89,99.13z"/>
		</g>
	</g>
	<g>
		<g>
			<path d="M97.68,92.96c0.18-0.13,0.37-0.24,0.57-0.33c-0.08,0.03-0.16,0.07-0.24,0.1c0.21-0.08,0.42-0.14,0.64-0.17
				c-0.09,0.01-0.18,0.02-0.27,0.04c0.22-0.03,0.44-0.03,0.66,0c-0.09-0.01-0.18-0.02-0.27-0.04c0.14,0.02,0.28,0.05,0.42,0.09
				c-0.23-0.23-0.47-0.47-0.7-0.7c0.02,0.09,0.04,0.18,0.05,0.26c-0.01-0.09-0.02-0.18-0.04-0.27c0.03,0.25,0.03,0.51,0,0.76
				c0.01-0.09,0.02-0.18,0.04-0.27c-0.04,0.25-0.11,0.5-0.2,0.73c0.03-0.08,0.07-0.16,0.1-0.24c-0.1,0.22-0.21,0.43-0.36,0.62
				c0.05-0.07,0.1-0.13,0.16-0.2c-0.13,0.17-0.27,0.32-0.44,0.45c0.4-0.05,0.81-0.1,1.21-0.16c-0.05-0.03-0.1-0.07-0.15-0.11
				c0.07,0.05,0.13,0.1,0.2,0.16c-0.11-0.09-0.22-0.2-0.31-0.31c0.05,0.07,0.1,0.13,0.16,0.2c-0.1-0.13-0.17-0.26-0.24-0.41
				c0.03,0.08,0.07,0.16,0.1,0.24c-0.08-0.18-0.13-0.37-0.15-0.57c0.01,0.09,0.02,0.18,0.04,0.27c-0.02-0.18-0.02-0.37,0-0.55
				c-0.01,0.09-0.02,0.18-0.04,0.27c0.02-0.17,0.07-0.34,0.13-0.5c-0.03,0.08-0.07,0.16-0.1,0.24c0.06-0.15,0.14-0.28,0.24-0.41
				c-0.05,0.07-0.1,0.13-0.16,0.2c0.05-0.06,0.1-0.11,0.15-0.16c0.37-0.37,0.4-1.05,0-1.41c-0.4-0.37-1.02-0.39-1.41,0
				c-1.3,1.29-1,3.62,0.54,4.59c0.19,0.12,0.42,0.15,0.64,0.12c0.23-0.03,0.39-0.12,0.57-0.28c0.34-0.28,0.64-0.66,0.85-1.05
				c0.26-0.49,0.39-0.98,0.45-1.53c0.02-0.19,0.02-0.37,0.01-0.56c-0.04-0.47-0.1-0.99-0.56-1.26c-0.29-0.17-0.69-0.21-1.01-0.24
				c-0.24-0.02-0.47,0-0.7,0.03c-0.56,0.08-1.12,0.27-1.58,0.62c-0.22,0.16-0.38,0.32-0.46,0.6c-0.07,0.24-0.04,0.56,0.1,0.77
				c0.14,0.21,0.34,0.4,0.6,0.46C97.15,93.12,97.47,93.12,97.68,92.96L97.68,92.96z"/>
		</g>
	</g>
	<g>
		<g>
			<path d="M88.25,112.37c-3.3,0.86-5.64,3.94-5.9,7.3c-0.26,3.48,2.13,6.64,5.26,7.93c3.17,1.31,6.75,0.41,9.16-1.98
				c2.54-2.53,3.74-7,1.33-10.02c-3-3.75-8.24-2.53-12.13-1.25c-1.22,0.4-0.7,2.33,0.53,1.93c2.87-0.94,6.31-2.09,9.09-0.29
				c2.59,1.68,2.08,5.31,0.43,7.47c-1.54,2.01-4.18,3.21-6.7,2.6c-2.46-0.6-4.67-2.7-4.96-5.28c-0.32-2.86,1.63-5.76,4.42-6.48
				C90.02,113.97,89.5,112.04,88.25,112.37L88.25,112.37z"/>
		</g>
	</g>
</g>
</svg>
